<svg width="299" height="299" viewBox="0 0 299 299" fill="none" xmlns="http://www.w3.org/2000/svg">
<circle cx="149.5" cy="149.5" r="149.5" fill="black"/>
<path d="M99.7702 100.656V235.526H90.4302V108.306L99.7702 100.656Z" fill="#FFCD00"/>
<path d="M71.68 123.725V231.115C68.79 228.305 67 224.365 67 220.015V134.805C67 130.615 68.7 126.615 71.68 123.715V123.725Z" fill="#FFCD00"/>
<path d="M132.54 73.8477V235.528H118.49V85.3477L132.54 73.8477Z" fill="#FFCD00"/>
<path d="M165.3 73.8764V235.526H146.58V65.1764C150.8 64.5364 155.23 65.6364 158.72 68.4964L165.3 73.8764Z" fill="#FFCD00"/>
<path d="M230.81 134.816V220.026C230.81 228.586 223.87 235.526 215.31 235.526H174.65V81.5156L225.13 122.816C228.73 125.756 230.82 130.166 230.82 134.816H230.81Z" fill="#FFCD00"/>
</svg>
