<svg width="324" height="324" viewBox="0 0 324 324" fill="none" xmlns="http://www.w3.org/2000/svg">
<circle cx="162" cy="162" r="162" fill="black"/>
<path d="M92.4088 79.4961V270.498H79.1816V90.3299L92.4088 79.4961Z" fill="#FFCD00"/>
<path d="M52.6278 112.167V264.251C48.535 260.272 46 254.692 46 248.531V127.858C46 121.924 48.4075 116.259 52.6278 112.152V112.167Z" fill="#FFCD00"/>
<path d="M138.817 41.5312V270.501H118.92V57.8174L138.817 41.5312Z" fill="#FFCD00"/>
<path d="M185.212 41.5707V270.498H158.701V29.2499C164.677 28.3435 170.951 29.9013 175.893 33.9516L185.212 41.5707Z" fill="#FFCD00"/>
<path d="M277.986 127.874V248.547C277.986 260.67 268.157 270.498 256.035 270.498H198.453V52.3906L269.942 110.879C275.04 115.043 278 121.288 278 127.874H277.986Z" fill="#FFCD00"/>
</svg>
